<?xml version="1.0" encoding="UTF-8"?>
<svg xmlns="http://www.w3.org/2000/svg" xmlns:xlink="http://www.w3.org/1999/xlink" width="126px" height="117px" viewBox="0 0 117 117" version="1.1">
<g id="surface1">
<path style=" stroke:none;fill-rule:nonzero;fill:rgb(0%,0%,0%);fill-opacity:1;" d="M 14.625 14.625 L 14.625 10.96875 C 14.625 8.949219 16.261719 7.3125 18.28125 7.3125 L 32.90625 7.3125 C 34.917969 7.3125 36.5625 8.949219 36.5625 10.96875 L 36.5625 14.625 L 43.875 14.625 L 55.414062 8.855469 C 57.449219 7.839844 59.6875 7.3125 61.949219 7.3125 L 102.375 7.3125 C 110.441406 7.3125 117 13.859375 117 21.9375 L 117 95.0625 C 117 103.128906 110.441406 109.6875 102.375 109.6875 L 14.625 109.6875 C 6.546875 109.6875 0 103.128906 0 95.0625 L 0 29.25 C 0 21.171875 6.546875 14.625 14.625 14.625 Z M 50.410156 27.695312 C 48.375 28.722656 46.136719 29.25 43.875 29.25 L 14.625 29.25 L 14.625 43.875 L 40.859375 43.875 C 45.886719 40.425781 51.941406 38.390625 58.5 38.390625 C 65.058594 38.390625 71.113281 40.425781 76.140625 43.875 L 102.375 43.875 L 102.375 21.9375 L 61.949219 21.9375 Z M 58.5 49.359375 C 47.394531 49.359375 38.390625 58.363281 38.390625 69.46875 C 38.390625 80.574219 47.394531 89.578125 58.5 89.578125 C 69.605469 89.578125 78.609375 80.574219 78.609375 69.46875 C 78.609375 58.363281 69.605469 49.359375 58.5 49.359375 Z M 58.5 49.359375 "/>
</g>
</svg>
