<?xml version="1.0" encoding="UTF-8"?>
<svg xmlns="http://www.w3.org/2000/svg" xmlns:xlink="http://www.w3.org/1999/xlink" width="126px" height="117px" viewBox="0 0 117 117" version="1.1">
<g id="surface1">
<path style=" stroke:none;fill-rule:nonzero;fill:rgb(0%,0%,0%);fill-opacity:1;" d="M 113 58.226562 L 110.402344 41.890625 C 109.464844 35.972656 106.679688 30.511719 102.449219 26.28125 L 90.71875 14.550781 C 86.488281 10.316406 81.054688 7.535156 75.136719 6.597656 L 58.707031 4.007812 C 52.832031 3.066406 46.777344 4.03125 41.476562 6.738281 L 26.667969 14.289062 C 21.304688 16.992188 16.992188 21.332031 14.261719 26.667969 L 6.742188 41.40625 C 4.039062 46.761719 3.070312 52.84375 4.007812 58.761719 L 6.605469 75.09375 C 7.542969 81.011719 10.328125 86.46875 14.554688 90.726562 L 26.285156 102.457031 C 30.519531 106.660156 35.953125 109.453125 41.871094 110.390625 L 58.289062 112.988281 C 64.179688 113.925781 70.230469 112.960938 75.535156 110.257812 L 90.339844 102.707031 C 95.671875 100 100.007812 95.664062 102.742188 90.335938 L 110.238281 75.578125 C 112.976562 70.222656 113.9375 64.167969 113 58.226562 Z M 40.21875 83.886719 C 36.191406 83.886719 33.113281 80.605469 33.113281 76.78125 C 33.113281 72.753906 36.394531 69.675781 40.21875 69.675781 C 44.042969 69.675781 47.324219 72.957031 47.324219 76.78125 C 47.53125 80.804688 44.242188 83.886719 40.21875 83.886719 Z M 47.53125 47.53125 C 43.503906 47.53125 40.425781 44.246094 40.425781 40.425781 C 40.425781 36.601562 43.710938 33.316406 47.53125 33.316406 C 51.558594 33.316406 54.636719 36.601562 54.636719 40.425781 C 54.636719 44.246094 51.554688 47.53125 47.53125 47.53125 Z M 84.09375 76.574219 C 80.066406 76.574219 76.988281 73.292969 76.988281 69.46875 C 76.988281 65.441406 80.269531 62.363281 84.09375 62.363281 C 87.917969 62.363281 91.199219 65.644531 91.199219 69.46875 C 91.40625 73.492188 88.117188 76.574219 84.09375 76.574219 Z M 84.09375 76.574219 "/>
</g>
</svg>
