<?xml version="1.0" encoding="UTF-8"?>
<svg xmlns="http://www.w3.org/2000/svg" xmlns:xlink="http://www.w3.org/1999/xlink" width="126px" height="117px" viewBox="0 0 146 117" version="1.1">
<g id="surface1">
<path style=" stroke:none;fill-rule:nonzero;fill:rgb(0%,0%,0%);fill-opacity:1;" d="M 36.5 5.484375 C 36.5 2.457031 38.941406 0 41.976562 0 L 67.523438 0 C 70.558594 0 73 2.457031 73 5.484375 C 73 8.511719 70.558594 10.96875 67.523438 10.96875 L 63.875 10.96875 L 87.601562 43.875 L 114.152344 43.875 C 115.910156 43.875 117.644531 44.195312 119.285156 44.8125 L 142.578125 53.5625 C 144.632812 54.339844 146 56.304688 146 58.5 C 146 60.695312 144.632812 62.660156 142.578125 63.4375 L 119.285156 72.1875 C 117.644531 72.804688 115.910156 73.125 114.152344 73.125 L 87.601562 73.125 L 63.875 106.03125 L 67.523438 106.03125 C 70.558594 106.03125 73 108.476562 73 111.515625 C 73 114.554688 70.558594 117 67.523438 117 L 41.976562 117 C 38.941406 117 36.5 114.554688 36.5 111.515625 C 36.5 108.476562 38.941406 106.03125 41.976562 106.03125 L 43.800781 106.03125 L 43.800781 73.125 L 36.5 73.125 L 24.042969 85.601562 C 22.667969 86.972656 20.8125 87.75 18.878906 87.75 L 14.601562 87.75 C 10.570312 87.75 7.300781 84.480469 7.300781 80.4375 L 7.300781 65.8125 C 3.269531 65.8125 0 62.542969 0 58.5 C 0 54.457031 3.269531 51.1875 7.300781 51.1875 L 7.300781 36.5625 C 7.300781 32.519531 10.570312 29.25 14.601562 29.25 L 18.878906 29.25 C 20.8125 29.25 22.667969 30.027344 24.042969 31.398438 L 36.5 43.875 L 43.800781 43.875 L 43.800781 10.96875 L 41.976562 10.96875 C 38.941406 10.96875 36.5 8.511719 36.5 5.484375 Z M 18.25 54.84375 C 16.234375 54.84375 14.601562 56.488281 14.601562 58.5 C 14.601562 60.511719 16.234375 62.15625 18.25 62.15625 L 32.851562 62.15625 C 34.859375 62.15625 36.5 60.511719 36.5 58.5 C 36.5 56.488281 34.859375 54.84375 32.851562 54.84375 Z M 18.25 54.84375 "/>
</g>
</svg>
